<?xml version="1.0" standalone="no"?>
<!DOCTYPE svg PUBLIC "-//W3C//DTD SVG 20010904//EN"
 "http://www.w3.org/TR/2001/REC-SVG-20010904/DTD/svg10.dtd">
<svg version="1.0" xmlns="http://www.w3.org/2000/svg"
 width="1200.000000pt" height="1200.000000pt" viewBox="0 0 1200.000000 1200.000000"
 preserveAspectRatio="xMidYMid meet">

<g transform="translate(0.000000,1200.000000) scale(0.100000,-0.100000)"
fill="#000000" stroke="none">
<path d="M5320 7537 c-161 -48 -288 -154 -360 -300 -86 -174 -86 -352 -2 -527
35 -71 66 -105 526 -572 389 -396 495 -498 515 -498 19 0 66 41 198 172 163
162 194 198 158 184 -8 -3 -42 -8 -75 -12 l-61 -6 -108 -111 -109 -111 -449
453 c-246 249 -462 474 -480 500 -145 215 -75 535 148 677 180 113 427 92 586
-50 28 -25 55 -46 60 -46 5 0 22 14 39 31 l29 31 -62 57 c-146 135 -361 185
-553 128z"/>
<path d="M6378 7545 c-140 -35 -175 -61 -429 -315 -219 -217 -239 -241 -272
-310 -19 -41 -40 -97 -46 -125 -74 -320 131 -643 449 -710 135 -28 261 -12
390 51 68 33 97 59 306 268 210 211 234 238 266 306 42 87 58 151 62 241 6
138 -46 289 -137 401 -58 70 -177 151 -265 179 -87 27 -244 34 -324 14z m240
-96 c125 -25 255 -117 316 -222 96 -163 92 -369 -9 -521 -19 -28 -125 -141
-237 -252 -172 -171 -213 -206 -268 -232 -159 -74 -323 -67 -475 22 -25 15
-45 30 -45 34 0 4 41 48 91 98 85 86 93 91 120 84 36 -10 76 -4 108 17 41 27
107 91 136 133 87 126 -43 279 -181 214 -18 -9 -63 -47 -98 -85 -69 -72 -84
-109 -72 -172 6 -30 1 -38 -87 -125 l-94 -94 -33 51 c-88 138 -97 319 -24 476
23 50 65 98 242 276 221 224 261 256 370 289 68 21 166 25 240 9z m-352 -717
c6 -4 14 -16 17 -26 6 -15 -8 -35 -62 -89 -68 -67 -71 -69 -93 -55 -41 27 -34
53 28 118 54 57 83 71 110 52z"/>
<path d="M4075 4788 c-108 -39 -190 -146 -230 -303 -23 -89 -27 -333 -6 -415
34 -134 103 -228 199 -273 39 -18 65 -22 157 -22 99 0 116 3 167 27 66 31 136
98 162 156 32 71 -1 100 -41 37 -29 -43 -112 -92 -173 -100 -130 -18 -219 63
-251 227 -13 69 -12 273 1 352 32 187 109 289 192 257 57 -22 79 -111 44 -178
-15 -31 -15 -32 6 -47 32 -23 91 -20 113 4 30 34 31 102 2 162 -43 86 -122
127 -242 127 -38 0 -83 -5 -100 -11z"/>
<path d="M4635 4726 l-70 -11 -3 -463 -2 -462 99 0 100 0 3 243 c3 265 9 293
61 311 23 8 31 6 50 -12 21 -21 22 -34 28 -210 4 -144 10 -196 23 -227 34 -80
88 -115 176 -115 84 0 140 43 175 135 l18 45 22 -47 c70 -149 257 -180 351
-58 l26 35 18 -32 c27 -52 74 -78 139 -78 94 1 166 47 202 130 16 35 29 39 29
9 0 -41 42 -98 87 -120 65 -31 157 -24 215 17 47 33 94 113 105 177 5 36 5 37
-24 37 -26 0 -31 -5 -37 -31 -8 -40 -57 -89 -90 -89 -14 0 -35 9 -46 20 -19
19 -20 33 -20 255 l0 235 40 0 c36 0 40 3 40 25 0 23 -4 25 -40 25 l-40 0 0
105 c0 121 11 113 -120 92 l-75 -12 -3 -92 c-2 -85 -4 -93 -22 -93 -15 0 -20
-7 -20 -25 0 -18 5 -25 20 -25 19 0 20 -7 20 -195 l0 -195 -24 0 c-19 0 -25
-7 -30 -34 -9 -49 -60 -90 -100 -82 -17 4 -35 11 -41 17 -6 6 -11 110 -13 274
l-3 265 -100 0 c-92 0 -99 -1 -99 -20 0 -19 -1 -19 -35 1 -29 17 -48 21 -99
17 -78 -5 -129 -35 -175 -104 -43 -65 -62 -132 -68 -241 -5 -78 -8 -93 -23
-93 -11 0 -21 -15 -31 -47 -9 -32 -23 -52 -40 -62 -30 -17 -73 -9 -85 16 -5
10 -11 104 -14 208 -6 212 -14 244 -76 292 -60 45 -168 44 -224 -3 l-30 -26 0
166 0 166 -27 -1 c-16 -1 -59 -7 -98 -13z m1003 -352 c21 -15 22 -20 22 -202
0 -167 -2 -190 -19 -219 -26 -42 -73 -53 -110 -26 -78 59 -60 375 26 443 31
24 51 25 81 4z"/>
<path d="M6575 4726 l-70 -11 -3 -379 c-1 -238 2 -392 8 -417 24 -89 101 -139
215 -138 82 0 129 15 182 57 77 61 114 164 114 317 -1 149 -46 252 -130 295
-47 23 -115 26 -151 5 -14 -8 -28 -14 -32 -15 -5 0 -8 68 -8 150 l0 150 -27
-1 c-16 -1 -59 -7 -98 -13z m239 -377 c38 -30 57 -82 63 -174 8 -113 -10 -190
-53 -233 -30 -30 -39 -34 -67 -28 -56 11 -58 20 -55 240 l3 200 25 7 c42 12
56 10 84 -12z"/>
<path d="M7885 4666 l-70 -11 -3 -92 c-2 -85 -4 -93 -22 -93 -15 0 -20 -7 -20
-25 0 -18 5 -25 20 -25 18 0 20 -7 20 -54 l0 -54 -47 -22 c-26 -12 -61 -24
-78 -27 -31 -5 -31 -4 -48 54 -28 102 -96 151 -212 152 -184 2 -297 -165 -283
-417 6 -101 34 -169 92 -220 87 -76 247 -69 330 14 55 55 96 182 96 299 0 40
1 40 58 61 31 12 64 24 73 28 15 7 17 -9 21 -161 3 -156 5 -171 27 -210 35
-61 91 -87 176 -81 52 3 73 10 107 34 47 33 94 113 105 177 5 36 5 37 -24 37
-26 0 -31 -5 -37 -31 -8 -40 -57 -89 -90 -89 -14 0 -35 9 -46 20 -19 19 -20
33 -20 255 l0 235 40 0 c36 0 40 3 40 25 0 23 -4 25 -40 25 l-40 0 0 105 0
105 -27 -1 c-16 -1 -59 -6 -98 -13z m-412 -287 c35 -16 50 -52 30 -72 -31 -31
-13 -117 25 -117 12 0 14 -12 8 -72 -9 -100 -23 -147 -56 -180 -30 -30 -50
-34 -81 -18 -69 38 -78 284 -14 410 30 60 46 68 88 49z"/>
</g>
</svg>
